<svg width="18" height="18" viewBox="0 0 18 18" fill="none" xmlns="http://www.w3.org/2000/svg">
<path d="M8.046 0.964844C9.91407 0.967014 11.705 1.72845 13.0259 3.08209C14.3469 4.43574 15.0899 6.27106 15.092 8.18541C15.0939 9.87049 14.5181 11.5027 13.465 12.7969L16.809 16.2237C16.931 16.3488 16.9995 16.5183 16.9995 16.6951C16.9995 16.8719 16.931 17.0415 16.809 17.1665C16.687 17.2916 16.5215 17.3618 16.349 17.3618C16.1765 17.3618 16.011 17.2916 15.889 17.1665L12.545 13.7387C11.2824 14.8176 9.69 15.4077 8.046 15.406C6.17793 15.4038 4.38699 14.6424 3.06606 13.2887C1.74514 11.9351 1.00212 10.0998 1 8.18541C1.00212 6.27106 1.74514 4.43574 3.06606 3.08209C4.38699 1.72845 6.17793 0.967014 8.046 0.964844ZM8.046 2.29705C6.52273 2.29895 5.06239 2.91997 3.98536 4.02387C2.90834 5.12777 2.30259 6.6244 2.301 8.18541C2.30285 9.74624 2.90872 11.2426 3.98572 12.3463C5.06271 13.45 6.5229 14.0708 8.046 14.0727C9.5691 14.0708 11.0293 13.45 12.1063 12.3463C13.1833 11.2426 13.7891 9.74624 13.791 8.18541C13.7891 6.62457 13.1833 5.12821 12.1063 4.02453C11.0293 2.92085 9.5691 2.29997 8.046 2.29808V2.29705Z" fill="white" stroke="white" stroke-width="0.5"/>
</svg>
